<?xml version="1.0" standalone="no"?><!DOCTYPE svg PUBLIC "-//W3C//DTD SVG 1.1//EN" "http://www.w3.org/Graphics/SVG/1.1/DTD/svg11.dtd"><svg t="1583230482796" class="icon" viewBox="0 0 1024 1024" version="1.1" xmlns="http://www.w3.org/2000/svg" p-id="2250" xmlns:xlink="http://www.w3.org/1999/xlink" width="32" height="32"><defs><style type="text/css"></style></defs><path d="M766.289394 1008.772756l-26.391937-100.953759-161.061616-93.381778h-133.937681L283.836544 907.818997l-26.389937 100.953759" fill="#C9FFF7" p-id="2251"></path><path d="M627.515725 842.655152l-21.601949 107.789743-94.031776-69.015835-94.069776 69.015835-21.577948-107.789743 48.663884-28.219933h133.959681z m0 0" fill="#72CEC0" p-id="2252"></path><path d="M578.875841 738.4534v75.983819c0 28.991931-18.391956 53.655872-44.149895 62.99185-7.123983 2.599994-14.819965 3.99999-22.843946 3.999991h-0.014c-36.985912 0-66.96984-29.983929-66.96984-66.991841v-75.959819z m0 0" fill="#E8B094" p-id="2253"></path><path d="M578.875841 786.419286v28.017933c0 28.991931-18.391956 53.655872-44.149895 62.99185-25.765939-9.319978-44.155895-33.999919-44.155895-62.99185v-19.241954c7.007983 0.647998 14.109966 0.975998 21.297949 0.975998 23.279945 0 45.771891-3.413992 67.007841-9.749977z m0 0" fill="#FFDBCC" p-id="2254"></path><path d="M745.553443 466.094049c2.999993-0.459999 6.149985-0.687998 9.421978-0.687998 37.351911 0 61.547853 30.265928 61.547853 67.617839s-34.813917 88.389789-72.163828 88.389789c-8.40598 0-15.391963-2.577994-21.179949-7.007983H300.560504c-5.779986 4.429989-12.76597 7.007983-21.17195 7.007983-37.349911 0-72.163828-51.039878-72.163828-88.389789s24.195942-67.617839 61.547854-67.617839c3.265992 0 6.413985 0.225999 9.419977 0.687998" fill="#E8B094" p-id="2255"></path><path d="M792.553331 267.492523v210.311498L404.400256 476.220025l-169.507596-0.685998V202.328678c0-44.453894 43.015898-76.179818 85.485797-63.08585 23.913943-76.007819 93.991776-123.913705 168.811597-123.913705 20.521951 0 41.373901 3.593991 61.733853 11.203974 0.899998 0.327999 1.787996 0.671998 2.679994 1.013997l102.499756 40.071905c82.287804 32.179923 136.451675 111.507734 136.451674 199.873524z m0 0" fill="#F7D360" p-id="2256"></path><path d="M403.610258 168.900758c0 71.045831 57.671863 150.053642 57.671863 150.053642l-56.883865 157.263625-169.507596-0.685998V202.328678c0-44.453894 43.015898-76.179818 85.483797-63.08585 23.915943-76.007819 93.993776-123.913705 168.813597-123.913705 20.521951 0 41.373901 3.593991 61.733853 11.203974-77.867814-27.891934-147.311649 72.123828-147.311649 142.365661z m0 0" fill="#E58E13" p-id="2257"></path><path d="M334.796422 231.086609c133.765681 145.671653 410.765021 151.757638 410.765021 151.757639v131.725686c0 64.539846-26.171938 122.937707-68.451836 165.225606-42.289899 42.305899-100.71176 68.445837-165.241607 68.445837-129.047693 0-233.671443-104.623751-233.671443-233.671443v-131.015688c0-58.279861 21.311949-111.545734 56.593865-152.467637z m0 0" fill="#FFDBCC" p-id="2258" data-spm-anchor-id="a313x.7781069.0.i1"></path><path d="M357.008369 514.569934v-131.015688c0-39.389906 9.749977-76.475818 26.951936-109.02174-17.763958-12.891969-34.341918-27.305935-49.163883-43.445897h-0.006c-35.281916 40.919902-56.593865 94.187776-56.593865 152.467637v131.023688c0 129.045693 104.623751 233.671443 233.671443 233.671443 13.427968 0 26.599937-1.147997 39.413906-3.327992-110.281737-18.733955-194.273537-114.733727-194.273537-230.351451z m0 0" fill="#E8B094" p-id="2259"></path><path d="M461.882119 400.734205c-2.069995-8.147981-10.359975-13.061969-18.507955-10.991974l-69.021836 17.593958a15.225964 15.225964 0 0 0-10.991974 18.515956 15.227964 15.227964 0 0 0 14.739965 11.467973c1.243997 0 2.509994-0.156 3.775991-0.475999l69.013836-17.593958a15.225964 15.225964 0 0 0 10.991973-18.515956z m0 0M572.851855 419.250161l69.023836 17.593958a14.915964 14.915964 0 0 0 3.771991 0.475999 15.223964 15.223964 0 0 0 3.749991-29.975929l-69.021836-17.593958a15.221964 15.221964 0 0 0-18.515956 10.991974 15.217964 15.217964 0 0 0 10.991974 18.507956z m0 0M405.976253 470.812038v16.91396a15.223964 15.223964 0 0 0 30.445927 0v-16.91396a15.223964 15.223964 0 1 0-30.445927 0z m0 0M602.545784 455.586074a15.229964 15.229964 0 0 0-15.225963 15.225964v16.91396a15.229964 15.229964 0 0 0 15.225963 15.227964 15.229964 15.229964 0 0 0 15.227964-15.227964v-16.91396a15.229964 15.229964 0 0 0-15.227964-15.225964z m0 0M511.876 564.413815c12.70997 0 25.419939-4.835988 35.099917-14.515965a15.225964 15.225964 0 0 0-21.529949-21.529949c-7.485982 7.483982-19.663953 7.483982-27.139935 0a15.225964 15.225964 0 0 0-21.531949 21.529949c9.679977 9.679977 22.389947 14.515965 35.099916 14.515965z m0 0M496.954036 627.437665c-51.939876-5.711986-64.007847-40.265904-64.601846-42.0559a15.223964 15.223964 0 0 0-18.921955-10.053976 15.219964 15.219964 0 0 0-10.195976 18.959955c0.679998 2.265995 17.483958 55.407868 90.389785 63.415849a15.233964 15.233964 0 0 0 16.79596-13.475968 15.209964 15.209964 0 0 0-13.465968-16.78996z m0 0" p-id="2260"></path><path d="M687.875581 690.561515a249.933404 249.933404 0 0 0 42.1399-55.937867 51.439877 51.439877 0 0 0 14.343965 2.007995c46.23989 0 87.389792-57.935862 87.389792-103.607753 0-25.29794-8.975979-46.937888-23.975943-61.749853v-203.779514c0-46.431889-13.835967-91.243783-40.015904-129.595692a15.227964 15.227964 0 0 0-25.14794 17.171959c22.709946 33.265921 34.719917 72.139828 34.719917 112.421733v185.859557a77.831815 77.831815 0 0 0-16.539961-2.945993v-100.039762c0-8.41198-6.819984-15.225964-15.227964-15.225964s-15.225964 6.813984-15.225963 15.227964v16.451961c-59.459858-3.945991-274.367346-26.295937-384.319084-146.029652a15.227964 15.227964 0 0 0-22.757946 0.351999c-38.875907 45.091893-60.289856 102.779755-60.289857 162.411613v66.851841c-4.427989 0.303999-8.717979 0.967998-12.859969 1.959995V202.330678c0-16.295961 7.523982-31.195926 20.641951-40.873903 13.109969-9.679977 29.56993-12.46997 45.139892-7.663981a15.219964 15.219964 0 0 0 19.015955-9.977977c13.585968-43.201897 43.569896-77.765815 84.413799-97.327768 40.851903-19.561953 86.569794-21.257949 128.749693-4.757988l102.475756 40.069904a198.869526 198.869526 0 0 1 52.063876 30.079928c6.559984 5.255987 16.139962 4.20199 21.397949-2.359994s4.20199-16.139962-2.359995-21.399949a229.263454 229.263454 0 0 0-60.015857-34.679917L559.155888 13.371128c-50.115881-19.601953-104.451751-17.593958-152.991636 5.655987-44.343894 21.233949-77.905814 57.359863-95.695772 102.585755-20.373951-2.485994-40.835903 2.827993-57.803862 15.343964-20.97595 15.475963-33.007921 39.303906-33.007921 65.373844v265.553367C202.460738 482.68001 192.000762 505.719955 192.000762 533.02189c0 45.673891 41.147902 103.609753 87.389792 103.609753 5.069988 0 9.899976-0.709998 14.485966-2.053995 29.39793 53.195873 77.709815 94.545775 135.795676 114.929726v56.155866l-74.843821 43.389897a15.227964 15.227964 0 0 0 15.273963 26.343937l15.365964-8.905979 17.421958 86.945793a15.203964 15.203964 0 0 0 9.421978 11.201973 15.213964 15.213964 0 0 0 14.507965-1.919995l69.819834-51.235878v97.289768c0 8.40598 6.819984 15.219964 15.227963 15.219964s15.225964-6.813984 15.225964-15.219964v-97.289768l69.811834 51.233878a15.221964 15.221964 0 0 0 23.937943-9.279978l17.419958-86.945793 88.509789 51.311878 24.779941 94.819774a15.227964 15.227964 0 0 0 14.719965 11.375973 15.223964 15.223964 0 0 0 14.741965-19.079955l-26.389937-100.951759a15.205964 15.205964 0 0 0-7.093983-9.319978l-153.439635-88.959788v-56.069866c34.907917-12.179971 66.883841-32.149923 93.783777-59.055859z m113.41973-157.539625c0 30.219928-29.45193 73.165826-56.943865 73.165826-0.305999 0-0.609999-0.024-0.905997-0.032a246.737412 246.737412 0 0 0 10.787974-34.529918c3.351992-11.939972 12.46997-31.453925 22.211947-31.453925 8.41398 0 15.225964-6.819984 15.225964-15.225964s-6.811984-15.227964-15.225964-15.227964c-5.781986 0-10.985974 1.211997-15.663963 3.259993v-31.969924c20.475951 2.615994 40.513903 19.131954 40.513904 52.015876zM279.390554 606.189716c-27.491934 0-56.943864-42.945898-56.943864-73.163826 0-32.883922 20.045952-49.405882 40.521903-52.015876v31.959924a38.679908 38.679908 0 0 0-15.671962-3.249993 15.229964 15.229964 0 0 0 0 30.453928c10.459975 0 20.055952 22.117947 22.859945 33.959919 0.032 0.126 0.086 0.235999 0.118 0.351999a247.955409 247.955409 0 0 0 10.147976 31.663925c-0.335999 0.016-0.679998 0.04-1.031998 0.04z m14.023967-91.617782v-131.015688c0-46.739889 14.991964-92.115781 42.491899-129.467691 57.599863 56.187866 141.937662 97.303768 251.031401 122.343708 63.913848 14.671965 118.233718 19.437954 143.397659 20.95195v117.195721c0 58.335861-22.725946 113.18773-63.999848 154.453632-41.241902 41.263902-96.099771 63.991848-154.467632 63.991847-120.453713 0-218.453479-97.999766-218.453479-218.453479z m119.881714 335.7892l20.039952-11.625973c6.803984 21.969948 22.593946 40.015905 43.045898 49.851882l-48.327885 35.459915z m182.383566 73.685824l-48.311885-35.451915c20.451951-9.827977 36.249914-27.875934 43.059897-49.835882l20.009952 11.599973z m-32.031924-110.529736a16.85596 16.85596 0 0 0-0.016 1.539996c-0.327999 28.255933-23.405944 51.147878-51.763877 51.147878-28.531932 0-51.741877-23.219945-51.741876-51.765877v-56.391865c16.69396 3.539992 33.999919 5.421987 51.739876 5.421987 17.609958 0 34.945917-1.835996 51.781877-5.381987z m0 0M309.954481 875.079075l-33.759919 19.567953a15.239964 15.239964 0 0 0-7.091983 9.319978l-26.391937 100.953759a15.227964 15.227964 0 0 0 29.459929 7.701982l24.789941-94.819774 28.265933-16.389961c7.273983-4.20999 9.749977-13.531968 5.531987-20.80395-4.21199-7.273983-13.531968-9.749977-20.803951-5.531987z m0 0" p-id="2261"></path></svg>